# xmcd
#
# Track frame offsets: 
#        150
#        9788
#        31872
#        56310
#        80375
#        112042
#        140645
#        175831
#        208962
#        234911
#        259982
#        281645
#        320989
#        332980
#
# Disc length: 4737 seconds
#
# Revision: 0
# Processed by: cddbd v1.5.2PL0 Copyright (c) Steve Scherf et al.
# Submitted via: ExactAudioCopy v0.95b4
#
DISCID=c9127f0e
DTITLE=Jocelyn B. Smith - Expressionzz
DYEAR=2006
DGENRE=Soul
TTITLE0=In The Beginning
TTITLE1=According To John
TTITLE2=What U R 2 Love
TTITLE3=How Much I Love You
TTITLE4=How Many Times
TTITLE5=I Trust You Completely
TTITLE6=Adagio - Praise Jah
TTITLE7=Speak The Words
TTITLE8=A So(u)lis Ortus Cardine
TTITLE9=Where Can I Go
TTITLE10=I've Got A Friend
TTITLE11=Expressionzz
TTITLE12=Introducing The Family
TTITLE13=Oh Holy Night
EXTD=
EXTT0=
EXTT1=
EXTT2=
EXTT3=
EXTT4=
EXTT5=
EXTT6=
EXTT7=
EXTT8=
EXTT9=
EXTT10=
EXTT11=
EXTT12=
EXTT13=
PLAYORDER=
